<?xml version="1.0" standalone="no"?>
<!DOCTYPE svg PUBLIC "-//W3C//DTD SVG 20010904//EN"
 "http://www.w3.org/TR/2001/REC-SVG-20010904/DTD/svg10.dtd">
<svg version="1.0" xmlns="http://www.w3.org/2000/svg"
 width="231.000000pt" height="231.000000pt" viewBox="0 0 231.000000 231.000000"
 preserveAspectRatio="xMidYMid meet">
<metadata>
Created by potrace 1.11, written by Peter Selinger 2001-2013
</metadata>
<g transform="translate(0.000000,231.000000) scale(0.100000,-0.100000)"
fill="#000000" stroke="none">
<path d="M1924 2300 c-22 -3 -416 -5 -875 -4 -549 1 -838 -2 -847 -8 -14 -12
-16 -76 -2 -98 6 -10 28 -15 70 -16 163 -4 216 -43 238 -174 10 -59 8 -1632
-2 -1689 -11 -60 -30 -102 -58 -127 -46 -42 -76 -51 -178 -53 -25 -1 -50 -5
-57 -9 -17 -11 -24 -60 -11 -88 13 -28 -52 -25 573 -25 644 0 574 -3 586 27 6
19 6 37 -1 60 -11 33 -14 34 -63 35 -116 2 -163 15 -210 58 -69 63 -77 121
-77 538 l0 343 218 -3 c228 -4 260 -10 320 -54 39 -29 69 -93 71 -155 1 -9 11
-20 24 -24 28 -9 109 -6 121 6 4 4 7 55 6 112 -5 219 -5 336 0 421 5 87 5 88
-20 94 -38 10 -109 8 -120 -3 -5 -5 -12 -30 -15 -54 -7 -56 -33 -108 -68 -134
-43 -32 -124 -42 -335 -41 l-197 0 -3 365 c-3 399 1 447 46 497 43 46 76 51
307 48 250 -3 295 -14 378 -97 49 -49 113 -169 136 -255 10 -36 15 -41 45 -45
41 -5 122 14 119 27 -2 19 -17 220 -28 390 -10 153 -7 148 -91 135z"/>
</g>
</svg>
